<svg id="圖層_1" data-name="圖層 1" xmlns="http://www.w3.org/2000/svg" viewBox="0 0 164 80.5"><title>ariel2</title><path d="M39.52,1.29q8.43,0,14.53,18.49l.67.55v.55l-.67,3.24c1.18,0,2.23,2,3.17,6a10.09,10.09,0,0,0,5.68,1.65l.61.54v.55c0,.74-1,1.1-3.12,1.1v.49l1.23,4.4L61,38.28h-.61v1.1H61l.62-.55h.67c.48,3.25,1.12,4.88,1.89,4.88l-.67.55v1.1h.67v-1.1H65.4L68,50.79l-.61.55c1.1,0,2.14.89,3.11,2.68l-.61.55v.55a11.14,11.14,0,0,1,3.79,8.18l-3.18,4.33H69.24c-5.82-1.46-8.76-2.72-8.85-3.78,3.79-.81,5.68-1.55,5.68-2.2q0-2.07-11.35-23.92c-.65,0-1.28-.74-1.89-2.2-2.57,0-3.85.55-3.85,1.65l-.61-.55h-.61l-2.56,2.2-.61-.55H44a25.92,25.92,0,0,0-8.85,3.23L33.23,41q-1,1.47-8.24,4.4l-3.17,8.11.67.55h.61l-1.89,3.3.61.55v.55Q19.93,65.8,18,67.63q0,1.59-1.23,1.59L18.71,78,15.53,79.6q-5.05-.43-5.06-3.85,0-5.55,3.17-17.33Q1,57.51,1,51.34v-1.1q4.7-3.3,18.31-9.83Q31,1.29,39.52,1.29ZM12.36,52.92V54h3.17l.61-3.23h-.61ZM40.8,7.82l-7.57,9.76.61.55v.55l-.61.55h-.67L32,18.68v.55l.61,2.2H32l.61.55v1l-1.22,1.1V21.43h-.67l-1.89,6V28h.67v-1.1h.61V28q-.61,3.24-1.89,3.24l-.61-.55.61,3.78v2.75l9.46-2.75.67.55h.61l8.85-2.69,1.89.55.61-.55.61.55.67-.55v-.54q0-4.65-10.13-23.93Z"/><path d="M95.49,36.51q6.29,1.22,6.29,6c-.82,1.79-1.65,2.76-2.51,2.93l-2.56-.55L86.64,67.45,82.25,68H81q-6.28-5.67-6.28-16.6V49c0-4.36.63-6.53,1.89-6.53h1.89q3.6,0,4.39,13.67h.68Q90,36.51,95.49,36.51Z"/><path d="M104.71,3.24h2.19q5,0,5,5.19v2.2q-.73,2.19-4.34,2.19c-1.54,0-3.21-1.7-5-5.12Q103.31,3.25,104.71,3.24Zm-.07,34.49h3.12q1.45.42,3,5.18l-.61,10.32q0,5.13,3.72,11.11V65.8L112.09,68H110.2q-7.38,0-7.39-14.77V47.31Q102.81,37.73,104.64,37.73Z"/><path d="M131.81,37.79h2.5q3.6,0,5.61,3.72v3.17q0,2.82-5.61,11.11c0,2.49-.63,3.73-1.89,3.73h-1.9l-3.72-3.18v-.55q0-2.13,5.62-11.11v-.55Q121.8,51.65,121.8,58.48V59a3.54,3.54,0,0,0,2.5,3.72h2.5q4.1,0,24.41-5.31h1.23v1.1q-9.1,7.7-23.14,9.52h-4.39q-10.62-1.09-10.62-9V56.89q0-8.85,14.4-18.55Z"/><path d="M156.22.8q2.13,0,3.6,6.59-4.33,16.11-4.33,26.31,0,13.48,6.47,33.57l-.74.73h-2.13q-7,0-9.34-13.12a80.58,80.58,0,0,1-2.87-21.18q2.44-32.9,5-32.9Z"/></svg>